<?xml version="1.0" standalone="no"?>
<!DOCTYPE svg PUBLIC "-//W3C//DTD SVG 20010904//EN"
 "http://www.w3.org/TR/2001/REC-SVG-20010904/DTD/svg10.dtd">
<svg version="1.0" xmlns="http://www.w3.org/2000/svg"
 width="1088.000000pt" height="687.000000pt" viewBox="0 0 1088.000000 687.000000"
 preserveAspectRatio="xMidYMid meet">

<g transform="translate(0.000000,687.000000) scale(0.100000,-0.100000)"
fill="#000000" stroke="none">
<path d="M4206 4748 c-4 -10 -12 -18 -18 -18 -9 0 -114 -89 -181 -152 -16 -16
-30 -28 -33 -28 -3 0 -73 -62 -121 -107 -13 -13 -28 -23 -33 -23 -4 0 -23 -18
-41 -40 -18 -22 -40 -42 -49 -45 -8 -3 -41 -29 -72 -58 l-57 -52 35 -25 c19
-14 64 -53 100 -87 37 -35 71 -63 76 -63 5 0 31 -22 57 -50 26 -27 52 -50 57
-50 5 0 15 -9 22 -20 7 -11 16 -20 21 -20 5 0 22 -12 38 -27 16 -16 59 -55 97
-88 38 -33 80 -70 93 -82 l23 -22 0 144 0 145 133 0 c148 -1 222 -14 264 -48
15 -12 147 -140 293 -285 146 -144 312 -306 368 -361 56 -54 102 -101 102
-103 0 -3 67 -73 149 -156 82 -84 198 -203 259 -264 60 -62 114 -113 120 -113
5 0 12 -7 16 -15 3 -8 12 -15 20 -15 8 0 16 -4 18 -8 5 -13 127 -78 181 -96
76 -26 249 -46 391 -46 l131 0 -3 -142 c-4 -139 -4 -143 14 -126 85 79 118
108 125 108 5 0 14 9 21 20 7 11 18 20 24 20 6 0 28 20 50 45 21 24 44 45 49
45 6 0 33 21 60 46 28 25 75 66 105 92 30 25 73 63 95 84 22 21 48 43 58 51
18 12 15 16 -30 52 -26 22 -55 47 -64 57 -9 10 -21 18 -28 18 -6 0 -11 4 -11
9 0 5 -24 28 -52 51 -52 41 -128 106 -237 205 -31 28 -84 75 -119 104 l-64 54
3 -136 c2 -75 1 -139 -2 -141 -2 -3 -72 -6 -154 -7 -119 -2 -160 1 -197 14
-53 19 -127 67 -128 83 0 6 -21 31 -47 56 -27 25 -218 216 -425 424 -601 605
-771 770 -808 789 -19 10 -37 21 -40 24 -9 11 -92 51 -106 51 -8 0 -22 4 -32
9 -64 35 -329 69 -443 58 l-58 -7 -3 143 c-2 88 -6 135 -12 125z"/>
<path d="M6662 4585 c0 -49 3 -101 7 -115 4 -14 6 22 4 80 -6 133 -11 152 -11
35z"/>
<path d="M6662 4420 c0 -14 2 -19 5 -12 2 6 2 18 0 25 -3 6 -5 1 -5 -13z"/>
<path d="M6452 4383 c37 -2 100 -2 140 0 40 1 10 3 -67 3 -77 0 -110 -1 -73
-3z"/>
<path d="M6273 4373 c9 -2 23 -2 30 0 6 3 -1 5 -18 5 -16 0 -22 -2 -12 -5z"/>
<path d="M6228 4363 c7 -3 16 -2 19 1 4 3 -2 6 -13 5 -11 0 -14 -3 -6 -6z"/>
<path d="M7125 4260 c10 -11 20 -20 23 -20 3 0 -3 9 -13 20 -10 11 -20 20 -23
20 -3 0 3 -9 13 -20z"/>
<path d="M6418 3893 c12 -2 32 -2 45 0 12 2 2 4 -23 4 -25 0 -35 -2 -22 -4z"/>
<path d="M6343 3883 c9 -2 25 -2 35 0 9 3 1 5 -18 5 -19 0 -27 -2 -17 -5z"/>
<path d="M6513 3883 c15 -2 39 -2 55 0 15 2 2 4 -28 4 -30 0 -43 -2 -27 -4z"/>
<path d="M6620 3886 c0 -2 11 -6 25 -8 13 -3 22 -1 19 3 -5 9 -44 13 -44 5z"/>
<path d="M6298 3873 c7 -3 16 -2 19 1 4 3 -2 6 -13 5 -11 0 -14 -3 -6 -6z"/>
<path d="M6664 3847 c-2 -7 -3 -65 -2 -128 l3 -114 5 128 c3 70 4 127 2 127
-1 0 -5 -6 -8 -13z"/>
<path d="M6929 3843 c-13 -16 -12 -17 4 -4 16 13 21 21 13 21 -2 0 -10 -8 -17
-17z"/>
<path d="M6130 3743 l-105 -108 108 105 c59 57 107 106 107 107 0 8 -13 -5
-110 -104z"/>
<path d="M6784 3718 l-19 -23 23 19 c12 11 22 21 22 23 0 8 -8 2 -26 -19z"/>
<path d="M4895 3188 l-70 -73 73 70 72 70 170 -170 c93 -93 166 -173 163 -178
-4 -6 -1 -7 7 -2 8 5 -41 61 -161 181 -96 96 -176 174 -179 174 -3 0 -37 -33
-75 -72z"/>
<path d="M4214 3030 c0 -80 2 -112 3 -72 2 39 2 105 0 145 -1 39 -3 7 -3 -73z"/>
<path d="M4154 3108 l-19 -23 23 19 c12 11 22 21 22 23 0 8 -8 2 -26 -19z"/>
<path d="M4784 3078 l-29 -33 33 29 c17 17 32 31 32 33 0 8 -8 1 -36 -29z"/>
<path d="M3994 2968 l-19 -23 23 19 c21 18 27 26 19 26 -2 0 -12 -10 -23 -22z"/>
<path d="M4448 2883 c17 -2 47 -2 65 0 17 2 3 4 -33 4 -36 0 -50 -2 -32 -4z"/>
<path d="M4273 2873 c26 -2 68 -2 95 0 26 2 4 3 -48 3 -52 0 -74 -1 -47 -3z"/>
<path d="M3629 2653 c-13 -16 -12 -17 4 -4 9 7 17 15 17 17 0 8 -8 3 -21 -13z"/>
<path d="M3650 2595 c13 -14 26 -25 28 -25 3 0 -5 11 -18 25 -13 14 -26 25
-28 25 -3 0 5 -11 18 -25z"/>
<path d="M4944 2558 l-19 -23 23 19 c12 11 22 21 22 23 0 8 -8 2 -26 -19z"/>
<path d="M3800 2466 c0 -2 8 -10 18 -17 15 -13 16 -12 3 4 -13 16 -21 21 -21
13z"/>
<path d="M4648 2413 c7 -3 16 -2 19 1 4 3 -2 6 -13 5 -11 0 -14 -3 -6 -6z"/>
<path d="M4588 2403 c7 -3 16 -2 19 1 4 3 -2 6 -13 5 -11 0 -14 -3 -6 -6z"/>
<path d="M4538 2393 c6 -2 18 -2 25 0 6 3 1 5 -13 5 -14 0 -19 -2 -12 -5z"/>
<path d="M4433 2383 c15 -2 39 -2 55 0 15 2 2 4 -28 4 -30 0 -43 -2 -27 -4z"/>
<path d="M4214 2235 c0 -77 2 -107 3 -67 2 40 2 103 0 140 -2 37 -3 4 -3 -73z"/>
<path d="M4175 2140 c10 -11 20 -20 23 -20 3 0 -3 9 -13 20 -10 11 -20 20 -23
20 -3 0 3 -9 13 -20z"/>
</g>
</svg>
